<svg id="visual" viewBox="0 0 960 540" width="960" height="540" xmlns="http://www.w3.org/2000/svg" xmlns:xlink="http://www.w3.org/1999/xlink" version="1.1"><path d="M0 330L22.8 331C45.7 332 91.3 334 137 343.3C182.7 352.7 228.3 369.3 274 380.5C319.7 391.7 365.3 397.3 411.2 388C457 378.7 503 354.3 548.8 351.3C594.7 348.3 640.3 366.7 686 367.5C731.7 368.3 777.3 351.7 823 350.2C868.7 348.7 914.3 362.3 937.2 369.2L960 376L960 541L937.2 541C914.3 541 868.7 541 823 541C777.3 541 731.7 541 686 541C640.3 541 594.7 541 548.8 541C503 541 457 541 411.2 541C365.3 541 319.7 541 274 541C228.3 541 182.7 541 137 541C91.3 541 45.7 541 22.8 541L0 541Z" fill="#fa7268"></path><path d="M0 374L22.8 370.7C45.7 367.3 91.3 360.7 137 364.7C182.7 368.7 228.3 383.3 274 386C319.7 388.7 365.3 379.3 411.2 375.5C457 371.7 503 373.3 548.8 381.3C594.7 389.3 640.3 403.7 686 410.5C731.7 417.3 777.3 416.7 823 416.2C868.7 415.7 914.3 415.3 937.2 415.2L960 415L960 541L937.2 541C914.3 541 868.7 541 823 541C777.3 541 731.7 541 686 541C640.3 541 594.7 541 548.8 541C503 541 457 541 411.2 541C365.3 541 319.7 541 274 541C228.3 541 182.7 541 137 541C91.3 541 45.7 541 22.8 541L0 541Z" fill="#ef5f67"></path><path d="M0 433L22.8 433.7C45.7 434.3 91.3 435.7 137 440C182.7 444.3 228.3 451.7 274 447.7C319.7 443.7 365.3 428.3 411.2 420.5C457 412.7 503 412.3 548.8 414.2C594.7 416 640.3 420 686 426.8C731.7 433.7 777.3 443.3 823 449.2C868.7 455 914.3 457 937.2 458L960 459L960 541L937.2 541C914.3 541 868.7 541 823 541C777.3 541 731.7 541 686 541C640.3 541 594.7 541 548.8 541C503 541 457 541 411.2 541C365.3 541 319.7 541 274 541C228.3 541 182.7 541 137 541C91.3 541 45.7 541 22.8 541L0 541Z" fill="#e34c67"></path><path d="M0 445L22.8 448.5C45.7 452 91.3 459 137 461.2C182.7 463.3 228.3 460.7 274 458.5C319.7 456.3 365.3 454.7 411.2 456.3C457 458 503 463 548.8 465.7C594.7 468.3 640.3 468.7 686 462.8C731.7 457 777.3 445 823 439.8C868.7 434.7 914.3 436.3 937.2 437.2L960 438L960 541L937.2 541C914.3 541 868.7 541 823 541C777.3 541 731.7 541 686 541C640.3 541 594.7 541 548.8 541C503 541 457 541 411.2 541C365.3 541 319.7 541 274 541C228.3 541 182.7 541 137 541C91.3 541 45.7 541 22.8 541L0 541Z" fill="#d53867"></path><path d="M0 493L22.8 496.8C45.7 500.7 91.3 508.3 137 507.8C182.7 507.3 228.3 498.7 274 494.5C319.7 490.3 365.3 490.7 411.2 489.8C457 489 503 487 548.8 486.2C594.7 485.3 640.3 485.7 686 487.8C731.7 490 777.3 494 823 494.5C868.7 495 914.3 492 937.2 490.5L960 489L960 541L937.2 541C914.3 541 868.7 541 823 541C777.3 541 731.7 541 686 541C640.3 541 594.7 541 548.8 541C503 541 457 541 411.2 541C365.3 541 319.7 541 274 541C228.3 541 182.7 541 137 541C91.3 541 45.7 541 22.8 541L0 541Z" fill="#c62368"></path></svg>